<?xml version="1.0" encoding="UTF-8"?>
<svg width="80px" height="80px" viewBox="0 0 80 80" version="1.1" xmlns="http://www.w3.org/2000/svg" xmlns:xlink="http://www.w3.org/1999/xlink">
    <!-- Generator: Sketch 47.1 (45422) - http://www.bohemiancoding.com/sketch -->
    <title>icon/80px/phone</title>
    <desc>Created with Sketch.</desc>
    <defs></defs>
    <g id="Symbols" stroke="none" stroke-width="1" fill="none" fill-rule="evenodd">
        <g id="icon/80px/phone">
            <g id="icon-12">
                <g id="Group" transform="translate(7.857143, 10.714286)" fill-rule="nonzero" fill="#333333">
                    <path d="M48.1428571,43.8571429 C47,42.7142857 45.8928571,41.4285714 44.6428571,40.3928571 C42.6071429,38.75 39.5714286,38.8214286 37.75,40.75 C36.5357143,42.0357143 36.0714286,43.5 34.25,44.2142857 C32.1071429,45.0714286 30.2142857,44.3571429 28.2857143,43.3571429 C24.6785714,41.4285714 21.5357143,38.6071429 19.2857143,35.2142857 C18.1785714,33.5 16.7857143,31.3928571 16.7857143,29.2857143 C16.7857143,26.6785714 18.3214286,25.4285714 20.2142857,24.0357143 C22.75,22.1428571 22.75,18.6785714 20.7142857,16.4285714 C18.1785714,13.6428571 15.3571429,11.0714286 12.7142857,8.42857143 C12.6785714,8.39285714 12.6428571,8.35714286 12.6071429,8.35714286 C10.5357143,6.57142857 7.39285714,6.5 5.57142857,8.78571429 C4.42857143,10.2142857 3.5,12.0357143 2.67857143,13.6785714 C-0.857142857,20.4642857 -0.5,28.8214286 3.42857143,35.3928571 C7.57142857,42.25 13.4285714,48.3928571 19.6428571,53.3928571 C22.6071429,55.7857143 25.75,58.25 29.3571429,59.6785714 C32.8928571,61.1071429 36.7857143,61.6071429 40.5714286,61.1071429 C43.75,60.6785714 46.6785714,59.5357143 49.4285714,57.9285714 C51.1785714,56.8928571 53.4285714,55.9642857 54.1785714,53.9285714 C55.6785714,49.75 50.6071429,46.3571429 48.1428571,43.8571429 Z M52.25,49.5 C53.75,51.1428571 53.75,53.6428571 51.9285714,55.0357143 C51.2857143,55.5357143 50.5,55.9285714 49.7857143,56.3571429 C43.8571429,59.8928571 37.3571429,61.2857143 30.6428571,58.9642857 C26.9642857,57.7142857 23.8214286,55.3214286 20.8214286,52.9285714 C17.8214286,50.5357143 15,47.9285714 12.3928571,45.1428571 C6.53571429,38.8571429 0.785714286,31.5714286 1.28571429,22.5357143 C1.5,18.8928571 2.71428571,15.5714286 4.57142857,12.4285714 C5.10714286,11.5714286 5.57142857,10.6428571 6.14285714,9.78571429 C7.53571429,7.71428571 10.1071429,7.46428571 11.9642857,9.10714286 C14.2857143,11.5357143 16.6785714,13.9285714 19.0357143,16.2857143 C20.75,18 22.1071429,20.3571429 20.2142857,22.5714286 C19.3214286,23.6071429 18,24.0357143 17.1428571,25.1428571 C16.3928571,26.0714286 15.9285714,27.1785714 15.7857143,28.3571429 C15.3928571,31.2142857 17.1071429,33.9642857 18.6785714,36.2142857 C20.4642857,38.7857143 22.6785714,41 25.25,42.7857143 C27.5,44.3214286 30.25,46.0714286 33.1071429,45.6785714 C34.2857143,45.5 35.3928571,45.0357143 36.3214286,44.3214286 C37.4285714,43.4642857 37.8571429,42.1071429 38.8928571,41.25 C42.6785714,38 47.1785714,44.4285714 49.5357143,46.7857143 C50.3928571,47.6428571 51.3928571,48.5357143 52.25,49.5 Z" id="Shape"></path>
                    <path d="M32.1428571,0.178571429 C31.4642857,0.178571429 31.4642857,1.25 32.1428571,1.25 C47.5357143,1.39285714 60.0357143,13.8928571 60.1785714,29.2857143 C60.1785714,29.9642857 61.25,29.9642857 61.25,29.2857143 C61.1071429,13.3214286 48.1071429,0.321428571 32.1428571,0.178571429 Z" id="Shape"></path>
                    <path d="M32.1428571,5.89285714 C31.4642857,5.89285714 31.4642857,6.96428571 32.1428571,6.96428571 C44.3928571,7.10714286 54.3214286,17.0357143 54.4642857,29.2857143 C54.4642857,29.9642857 55.5357143,29.9642857 55.5357143,29.2857143 C55.3928571,16.4285714 45,6.03571429 32.1428571,5.89285714 Z" id="Shape"></path>
                    <path d="M48.75,29.2857143 C48.75,29.9642857 49.8214286,29.9642857 49.8214286,29.2857143 C49.6785714,19.5357143 41.8928571,11.75 32.1428571,11.6071429 C31.4642857,11.6071429 31.4642857,12.6785714 32.1428571,12.6785714 C41.2857143,12.8214286 48.6071429,20.1428571 48.75,29.2857143 Z" id="Shape"></path>
                    <path d="M32.1428571,35.5357143 C35.6071429,35.5357143 38.1785714,32.75 38.3928571,29.4285714 C38.3928571,29.3928571 38.3928571,29.3214286 38.3928571,29.2857143 C38.3928571,29.25 38.3928571,29.1785714 38.3928571,29.1428571 C38.1785714,25.7857143 35.6071429,23.0357143 32.1428571,23.0357143 C28.75,23.0357143 25.8928571,25.8928571 25.8928571,29.2857143 C25.8928571,32.6785714 28.7142857,35.5357143 32.1428571,35.5357143 Z M32.1428571,24.1071429 C35.0714286,24.1071429 37.2142857,26.4642857 37.3214286,29.2857143 C37.2142857,32.1071429 35.0357143,34.4285714 32.1428571,34.4642857 C29.3571429,34.5 26.9285714,32.0714286 26.9642857,29.2857143 C27,26.4642857 29.2857143,24.1071429 32.1428571,24.1071429 Z" id="Shape"></path>
                </g>
                <rect id="Rectangle-path" x="0" y="0" width="79.9285714" height="79.9285714"></rect>
            </g>
        </g>
    </g>
</svg>