<?xml version="1.0" encoding="UTF-8"?>
<svg width="80px" height="80px" viewBox="0 0 80 80" version="1.1" xmlns="http://www.w3.org/2000/svg" xmlns:xlink="http://www.w3.org/1999/xlink">
    <!-- Generator: Sketch 47.1 (45422) - http://www.bohemiancoding.com/sketch -->
    <title>icon/80px/adr</title>
    <desc>Created with Sketch.</desc>
    <defs></defs>
    <g id="Symbols" stroke="none" stroke-width="1" fill="none" fill-rule="evenodd">
        <g id="icon/80px/adr">
            <g id="icon-10">
                <g id="Group" transform="translate(5.000000, 7.857143)" fill-rule="nonzero" fill="#333333">
                    <path d="M69.75,50.1071429 C69.75,45.4285714 69.7857143,40.7142857 69.7857143,36.0357143 C69.7857143,28.4285714 69.8928571,20.7857143 69.8214286,13.1785714 C69.8214286,12.6785714 69.8928571,12 69.3214286,11.8214286 C69.2142857,11.75 69.0714286,11.7142857 68.9285714,11.7857143 C64,13.4285714 59.0714286,15.0714286 54.1071429,16.7142857 C53.5357143,16.8928571 52.8571429,17.25 52.2142857,17.3571429 C52.1785714,17.3571429 52.1071429,17.3214286 51.9642857,17.2857143 C51.5714286,17.1785714 51.2142857,17.0357143 50.8571429,16.9285714 C49.3928571,16.4285714 47.9285714,15.9642857 46.4642857,15.4642857 C46.75,14.3928571 46.9285714,13.3571429 46.9285714,12.2857143 C46.8214286,7.39285714 43.9642857,2.89285714 39.3214286,1.07142857 C34.6428571,-0.785714286 29.1071429,0.607142857 25.8571429,4.46428571 C23.2142857,7.60714286 22.4642857,11.6071429 23.5714286,15.4642857 C22,16 20.3928571,16.5 18.8214286,17.0357143 C18.5714286,17.1428571 18.2142857,17.3214286 17.9285714,17.3928571 C18.0357143,17.3214286 17.4285714,17.25 17.1785714,17.1785714 C13.0714286,15.8214286 9,14.4642857 4.89285714,13.0714286 C3.78571429,12.7142857 2.32142857,11.8928571 1.14285714,11.8214286 C0.321428571,11.7857143 0.25,12.25 0.178571429,12.8928571 C-0.0357142857,15.5714286 0.178571429,18.3571429 0.178571429,21.0357143 C0.178571429,25.6785714 0.178571429,30.3214286 0.178571429,35 C0.178571429,39.6785714 0.178571429,44.3571429 0.178571429,49.0357143 C0.178571429,51.8214286 0.0357142857,54.6428571 0.178571429,57.4285714 C0.214285714,58 0.25,58.2857143 0.821428571,58.6071429 C2.03571429,59.2857143 3.67857143,59.5714286 5,60 C9,61.3214286 13,62.75 17.0357143,64 C17.2142857,64.0714286 17.3928571,64.1071429 17.5357143,64.1428571 C17.7142857,64.25 18,64.25 18.1785714,64.1428571 C18.3571429,64.1071429 18.5714286,64.0357143 18.8214286,63.9642857 C20.6785714,63.3571429 22.5357143,62.7142857 24.3928571,62.1071429 C26.7142857,61.3214286 29.0357143,60.5714286 31.3928571,59.7857143 C32.4642857,59.4285714 33.8214286,58.7142857 34.9642857,58.5714286 C34.8214286,58.6071429 35.2857143,58.6785714 35.5357143,58.75 C36.2857143,59.0357143 37.0357143,59.25 37.8214286,59.5 C40.0357143,60.25 42.25,60.9642857 44.4642857,61.7142857 C46.4642857,62.3928571 48.5,63.0714286 50.5,63.7142857 C51,63.8928571 51.4285714,64.0714286 51.8571429,64.1428571 C52.0357143,64.25 52.2857143,64.25 52.4642857,64.1428571 C52.5,64.1428571 52.5357143,64.1428571 52.5714286,64.1428571 C54.1071429,63.8571429 55.7142857,63.0714286 57.2142857,62.5714286 C59.5,61.8214286 61.7857143,61.0357143 64.0357143,60.2857143 C65.6071429,59.75 67.2857143,59.3214286 68.8214286,58.6785714 C69.3928571,58.4285714 69.6428571,58.2857143 69.75,57.6428571 C70.0714286,55.2142857 69.75,52.5357143 69.75,50.1071429 Z M24.25,10.5 C25.1071429,5.39285714 29.5714286,1.46428571 34.75,1.35714286 C40.9285714,1.21428571 45.75,6.28571429 45.8928571,12.3214286 C45.8571429,13.25 45.6785714,14.2142857 45.3928571,15.1428571 C45.2857143,15.5 45.1785714,15.8214286 45.0714286,16.1428571 C44.75,17.0714286 44.3214286,17.9642857 43.9642857,18.8214286 C42.8214286,21.3571429 41.4642857,23.7857143 40.0714286,26.1785714 C38.6428571,28.6071429 37.1428571,31 35.5714286,33.3571429 C35.3928571,33.6071429 35.2142857,33.8928571 35.0357143,34.1428571 C34.8571429,33.8928571 34.6785714,33.6071429 34.5,33.3571429 C31.6785714,29.2142857 29.0714286,24.8928571 26.8571429,20.4285714 C26.1785714,19.0714286 25.5,17.6428571 24.9642857,16.1785714 C24.8571429,15.8571429 24.75,15.5 24.6428571,15.1428571 C24.1785714,13.6428571 24,12.0714286 24.25,10.5 Z M11.8214286,61.0714286 C9.64285714,60.3571429 7.46428571,59.6071429 5.28571429,58.8928571 C4.03571429,58.4642857 2.57142857,57.7142857 1.25,57.5357143 C1.28571429,57.2857143 1.25,57.0357143 1.25,56.7857143 C1.25,55.6071429 1.25,54.4285714 1.25,53.25 C1.25,49.25 1.25,45.2857143 1.25,41.2857143 C1.25,32.75 1.25,24.1785714 1.25,15.6428571 C1.25,14.8928571 1.46428571,13.75 1.28571429,13 C1.46428571,13.0357143 1.64285714,13.0714286 1.71428571,13.1071429 C5.67857143,14.4285714 9.64285714,15.75 13.6428571,17.0714286 C14.75,17.4285714 16.1071429,18.1428571 17.3214286,18.3571429 C17.3214286,31.5714286 17.3214286,44.7857143 17.3214286,58.0357143 C17.3214286,59.6428571 17.3214286,61.25 17.3214286,62.8928571 C17.25,62.8571429 17.1428571,62.8571429 17.1071429,62.8214286 C15.3571429,62.25 13.5714286,61.6785714 11.8214286,61.0714286 Z M30.8214286,58.7857143 C26.7857143,60.1428571 22.75,61.4642857 18.7142857,62.8214286 C18.6071429,62.8571429 18.5357143,62.8928571 18.4285714,62.9285714 C18.4285714,49.7857143 18.4285714,36.6785714 18.4285714,23.5357143 C18.4285714,21.8214286 18.4285714,20.0714286 18.4285714,18.3571429 C18.8928571,18.25 19.3571429,18.0357143 19.7857143,17.8928571 C21.1785714,17.4285714 22.6071429,16.9642857 24,16.5 C25.3571429,20.3928571 27.4642857,24.0357143 29.5714286,27.5714286 C31.1428571,30.1785714 32.75,32.75 34.5,35.25 C34.5,40.9285714 34.5,46.6428571 34.5,52.3214286 C34.5,54.0357143 34.5,55.7857143 34.5,57.5 C33.25,57.7142857 31.9285714,58.3928571 30.8214286,58.7857143 Z M49.0714286,62.0714286 C44.9642857,60.7142857 40.8571429,59.3214286 36.75,57.9642857 C36.3214286,57.8214286 35.9285714,57.6428571 35.5,57.5357143 C35.5,50.1071429 35.5,42.6785714 35.5,35.25 C37.5714286,32.25 39.5357143,29.1428571 41.3571429,26 C43,23.1785714 45.0357143,19.8928571 46.1428571,16.5 C47.3928571,16.9285714 48.6428571,17.3214286 49.8928571,17.75 C50.5714286,17.9642857 51.0714286,18.1785714 51.5714286,18.25 C51.5714286,31.5 51.5714286,44.75 51.5714286,58.0357143 C51.5714286,59.6428571 51.5714286,61.2857143 51.5714286,62.8928571 C51.5357143,62.8928571 51.4642857,62.8571429 51.4285714,62.8571429 C50.6785714,62.6071429 49.8928571,62.3571429 49.0714286,62.0714286 Z M67.4285714,57.9642857 C63.3571429,59.3214286 59.25,60.7142857 55.1785714,62.0714286 C54.4285714,62.3214286 53.5357143,62.75 52.6785714,63 C52.6785714,49.8571429 52.6785714,36.7142857 52.6785714,23.5357143 C52.6785714,21.7857143 52.6785714,20.0357143 52.6785714,18.25 C52.8928571,18.2142857 53.1071429,18.1428571 53.3571429,18.0714286 C56.2142857,17.1071429 59.0714286,16.1785714 61.9285714,15.2142857 C64.2142857,14.4642857 66.4642857,13.7142857 68.75,12.9285714 C68.7142857,13.25 68.75,13.6428571 68.75,13.9642857 C68.75,15.25 68.75,16.5357143 68.75,17.8214286 C68.75,22 68.75,26.1785714 68.7142857,30.3571429 C68.7142857,38.6428571 68.6785714,46.9642857 68.6785714,55.25 C68.6785714,55.9642857 68.5357143,56.8214286 68.6428571,57.5357143 C68.25,57.6428571 67.8214286,57.8571429 67.4285714,57.9642857 Z" id="Shape"></path>
                    <path d="M29.0714286,14.7857143 C30,16.9285714 32.0714286,18.4642857 34.4642857,18.6428571 C34.6071429,18.6428571 34.75,18.6785714 34.8928571,18.6785714 C35.1071429,18.6785714 35.3214286,18.6785714 35.5357143,18.6428571 C37.9285714,18.3928571 39.8571429,16.8214286 40.7142857,14.7142857 C40.8571429,14.3928571 40.9642857,14.0357143 41.0357143,13.7142857 C41.1428571,13.3214286 41.1785714,12.8928571 41.2142857,12.5 C41.2142857,12.4642857 41.2142857,12.4285714 41.2142857,12.3571429 C41.2142857,12.3214286 41.2142857,12.25 41.2142857,12.2142857 C41,8.82142857 38.3928571,6 34.8928571,6 C31.4285714,6 28.5357143,8.89285714 28.5357143,12.3571429 C28.5357143,12.8571429 28.6071429,13.3214286 28.7142857,13.8214286 C28.8214286,14.1071429 28.9285714,14.4642857 29.0714286,14.7857143 Z M34.9285714,7.07142857 C37.8928571,7.10714286 40.0714286,9.42857143 40.2142857,12.3571429 C40.2142857,12.7142857 40.1428571,13.0357143 40.0714286,13.3928571 C40,13.75 39.8928571,14.0714286 39.75,14.4285714 C39.0357143,16.1428571 37.5,17.3928571 35.5714286,17.6071429 C35.3571429,17.6428571 35.1428571,17.6428571 34.9285714,17.6428571 C34.7857143,17.6428571 34.6428571,17.6428571 34.5,17.6071429 C32.5714286,17.4285714 30.9285714,16.1785714 30.1428571,14.5 C30,14.1785714 29.8928571,13.8214286 29.7857143,13.5 C29.7142857,13.1428571 29.6785714,12.7857143 29.6785714,12.3928571 C29.6428571,9.46428571 32.0357143,7.03571429 34.9285714,7.07142857 Z" id="Shape"></path>
                </g>
                <rect id="Rectangle-path" x="0" y="0" width="79.9285714" height="79.9285714"></rect>
            </g>
        </g>
    </g>
</svg>