<?xml version="1.0" encoding="UTF-8"?>
<svg width="80px" height="80px" viewBox="0 0 80 80" version="1.1" xmlns="http://www.w3.org/2000/svg" xmlns:xlink="http://www.w3.org/1999/xlink">
    <!-- Generator: Sketch 47.1 (45422) - http://www.bohemiancoding.com/sketch -->
    <title>icon/80px/mail</title>
    <desc>Created with Sketch.</desc>
    <defs></defs>
    <g id="Symbols" stroke="none" stroke-width="1" fill="none" fill-rule="evenodd">
        <g id="icon/80px/mail">
            <g id="icon-11">
                <g id="Group" transform="translate(5.000000, 13.571429)" fill-rule="nonzero" fill="#333333">
                    <path d="M69.8214286,51.8214286 C69.8214286,46.9642857 69.8214286,42.1071429 69.8214286,37.25 C69.8214286,26.75 69.8214286,16.2142857 69.8214286,5.71428571 C69.8214286,3.64285714 70.3571429,0.464285714 67.3928571,0.285714286 C65.0357143,0.142857143 62.6428571,0.285714286 60.2857143,0.285714286 C49.25,0.285714286 38.2142857,0.285714286 27.2142857,0.285714286 C19.1071429,0.285714286 11,0.0357142857 2.89285714,0.285714286 C0.107142857,0.392857143 0.178571429,2.57142857 0.178571429,4.64285714 C0.178571429,8.85714286 0.178571429,13.0357143 0.178571429,17.25 C0.178571429,28.2857143 0.178571429,39.3571429 0.178571429,50.3928571 C0.178571429,51.8928571 0.178571429,53.3928571 0.178571429,54.8928571 C0.178571429,55.8214286 0.0714285714,56.75 0.714285714,57.5357143 C1.89285714,59.0357143 5.39285714,58.3928571 7,58.3928571 C17.4642857,58.3928571 27.9285714,58.3928571 38.3571429,58.3928571 C47.5357143,58.3928571 56.75,58.3928571 65.9285714,58.3928571 C66.3928571,58.3928571 66.8571429,58.3928571 67.3571429,58.3928571 C67.3928571,58.3928571 67.4285714,58.3928571 67.4642857,58.3928571 C67.5357143,58.3928571 67.6071429,58.3928571 67.6428571,58.3571429 C70.5714286,57.8214286 69.8214286,54.0357143 69.8214286,51.8214286 Z M67.4642857,57.3214286 C49.9285714,57.3214286 32.3571429,57.3214286 14.8214286,57.3214286 C11.3214286,57.3214286 7.82142857,57.3214286 4.28571429,57.3214286 C3.75,57.3214286 3.07142857,57.4285714 2.53571429,57.3214286 C1.10714286,57.0357143 1.25,55.9642857 1.25,54.8928571 C1.25,45.7142857 1.25,36.5714286 1.25,27.3928571 C1.25,22.0714286 1.25,16.75 1.25,11.4285714 C1.25,8.64285714 0.928571429,5.64285714 1.25,2.85714286 C1.5,0.75 4.39285714,1.35714286 5.92857143,1.35714286 C10,1.35714286 14.0357143,1.35714286 18.1071429,1.35714286 C29.2857143,1.35714286 40.4285714,1.35714286 51.6071429,1.35714286 C55.7142857,1.35714286 59.8214286,1.35714286 63.9285714,1.35714286 C64.9285714,1.35714286 65.9642857,1.28571429 66.9642857,1.35714286 C67.9285714,1.39285714 68.6428571,1.64285714 68.7857143,2.82142857 C69.1071429,5.5 68.7857143,8.46428571 68.7857143,11.1785714 C68.7857143,16.4642857 68.7857143,21.75 68.7857143,27.0357143 C68.7857143,36.2857143 68.7857143,45.5357143 68.7857143,54.7857143 C68.75,55.8928571 68.9285714,57.0714286 67.4642857,57.3214286 Z" id="Shape"></path>
                    <path d="M63.1785714,8.89285714 C55.2142857,16.8571429 47.25,24.8214286 39.2857143,32.7857143 C38.2142857,33.8571429 37.1428571,35.25 35.9285714,36.1428571 C34.4285714,37.25 32.9285714,35 31.9642857,34.0357143 C27.2857143,29.3571429 22.6071429,24.6785714 17.9642857,20.0357143 C14.25,16.3571429 10.5357143,12.6071429 6.82142857,8.89285714 C6.32142857,8.39285714 5.57142857,9.17857143 6.07142857,9.64285714 C13.5714286,17.1428571 21.0714286,24.6428571 28.5357143,32.1071429 C22.9642857,37.7142857 17.3571429,43.2857143 11.7857143,48.8928571 C11.2857143,49.3928571 12.0714286,50.1428571 12.5357143,49.6428571 C18.1071429,44.0357143 23.7142857,38.4642857 29.2857143,32.8571429 C29.7857143,33.3571429 30.2857143,33.8571429 30.7857143,34.3571429 C31.7142857,35.2857143 32.6785714,36.6785714 33.8571429,37.3214286 C35.6785714,38.3571429 37,36.6071429 38.1428571,35.4642857 C39,34.6071429 39.8571429,33.75 40.75,32.8571429 C46.3214286,38.4642857 51.9285714,44.0357143 57.5,49.6428571 C58,50.1428571 58.75,49.3571429 58.25,48.8928571 C52.6785714,43.2857143 47.0714286,37.7142857 41.5,32.1071429 C45.0714286,28.5357143 48.6428571,24.9642857 52.2142857,21.3928571 C56.1428571,17.4642857 60.0714286,13.5357143 64,9.60714286 C64.4285714,9.17857143 63.6785714,8.42857143 63.1785714,8.89285714 Z" id="Shape"></path>
                </g>
                <rect id="Rectangle-path" x="0" y="0" width="79.9285714" height="79.9285714"></rect>
            </g>
        </g>
    </g>
</svg>