<?xml version="1.0" encoding="UTF-8"?>
<svg width="95px" height="94px" viewBox="0 0 95 94" version="1.1" xmlns="http://www.w3.org/2000/svg" xmlns:xlink="http://www.w3.org/1999/xlink">
    <!-- Generator: Sketch 47.1 (45422) - http://www.bohemiancoding.com/sketch -->
    <title>icon/100px/info</title>
    <desc>Created with Sketch.</desc>
    <defs></defs>
    <g id="Page-1" stroke="none" stroke-width="1" fill="none" fill-rule="evenodd">
        <g id="Desktop-HD-Copy-2" transform="translate(-928.000000, -1052.000000)">
            <g id="Group-8" transform="translate(720.000000, 1018.000000)">
                <g id="icon/L/100px/info" transform="translate(206.000000, 31.000000)">
                    <g id="icon-07">
                        <g id="Group">
                            <g transform="translate(10.666667, 10.714286)" id="Shape" fill-rule="nonzero">
                                <path d="M67.9555556,10.3125 C74.3111111,17.5446429 78.1777778,27.0535714 78.1777778,37.5 C78.1777778,60.1785714 59.8666667,78.5267857 37.3333333,78.5267857 C26.9777778,78.5267857 17.5111111,74.6428571 10.2666667,68.2589286 C17.7777778,76.7857143 28.7111111,82.1428571 40.9333333,82.1428571 C63.5111111,82.1428571 81.7777778,63.75 81.7777778,41.1160714 C81.7777778,28.8392857 76.4444444,17.8571429 67.9555556,10.3125 Z" fill="#E09D17"></path>
                                <path d="M78.1777778,37.5 C78.1777778,27.0982143 74.3111111,17.5892857 67.9555556,10.3125 C60.7555556,3.92857143 51.2888889,0.0446428571 40.8888889,0.0446428571 C18.3111111,0.0446428571 0.0444444444,18.4375 0.0444444444,41.0714286 C0.0444444444,51.4732143 3.91111111,60.9821429 10.2666667,68.2589286 C17.4666667,74.6428571 26.9333333,78.5267857 37.3333333,78.5267857 C59.9111111,78.5267857 78.1777778,60.1785714 78.1777778,37.5 Z" fill="#F9C34B"></path>
                            </g>
                            <g transform="translate(2.666667, 2.678571)" id="Shape" fill-rule="nonzero" fill="#999999">
                                <path d="M3.73333333,61.0267857 C2.4,56.5625 1.68888889,52.0089286 1.64444444,47.3214286 C1.64444444,46.4732143 0.311111111,46.4732143 0.311111111,47.3214286 C0.355555556,52.0982143 1.06666667,56.7857143 2.44444444,61.3839286 C2.66666667,62.2321429 3.95555556,61.875 3.73333333,61.0267857 L3.73333333,61.0267857 Z"></path>
                                <path d="M18.9333333,83.2142857 C12.8888889,78.3482143 8.22222222,72.1875 5.15555556,65.0446429 C4.8,64.2410714 3.64444444,64.9553571 4,65.7142857 C7.11111111,72.9464286 11.8666667,79.1964286 18,84.1517857 C18.6666667,84.6875 19.6,83.75 18.9333333,83.2142857 L18.9333333,83.2142857 Z"></path>
                                <path d="M28.8,89.1517857 C26.1333333,87.9464286 23.5555556,86.5178571 21.1555556,84.8214286 C20.4444444,84.3303571 19.7777778,85.4910714 20.4888889,85.9821429 C22.9333333,87.6339286 25.4666667,89.1071429 28.1333333,90.3125 C28.8888889,90.6696429 29.6,89.5089286 28.8,89.1517857 L28.8,89.1517857 Z"></path>
                                <path d="M47.1111111,92.9910714 C43.4222222,92.9464286 39.7777778,92.5446429 36.1777778,91.6517857 C35.3333333,91.4732143 34.9777778,92.7232143 35.8222222,92.9464286 C39.5555556,93.8392857 43.2888889,94.2857143 47.1111111,94.3303571 C47.9555556,94.375 47.9555556,93.0357143 47.1111111,92.9910714 L47.1111111,92.9910714 Z"></path>
                                <path d="M93.2444444,47.9910714 C94.0888889,47.9910714 94.0888889,46.6517857 93.2444444,46.6517857 C92.4,46.6517857 92.4,47.9910714 93.2444444,47.9910714 L93.2444444,47.9910714 Z"></path>
                                <path d="M89.9111111,31.7857143 C90.8888889,34.5982143 91.6,37.4107143 92.0888889,40.3571429 C92.2222222,41.2053571 93.5111111,40.8482143 93.3777778,40 C92.8888889,37.0535714 92.1777778,34.2410714 91.2,31.4285714 C90.8888889,30.5803571 89.6,30.9375 89.9111111,31.7857143 L89.9111111,31.7857143 Z"></path>
                                <path d="M84.0444444,20.625 C85.6,22.8125 86.9777778,25.1339286 88.1333333,27.5446429 C88.4888889,28.3035714 89.6444444,27.6339286 89.2888889,26.875 C88.0888889,24.4642857 86.7555556,22.1428571 85.2,19.9553571 C84.6666667,19.2410714 83.5111111,19.9107143 84.0444444,20.625 L84.0444444,20.625 Z"></path>
                                <path d="M64.7555556,5.17857143 C71.2,7.99107143 76.8888889,12.1428571 81.5555556,17.4553571 C82.1333333,18.125 83.0666667,17.1428571 82.4888889,16.5178571 C77.7777778,11.1160714 72,6.91964286 65.4222222,4.0625 C64.6222222,3.70535714 63.9555556,4.86607143 64.7555556,5.17857143 L64.7555556,5.17857143 Z"></path>
                                <path d="M47.1111111,1.65178571 C50.8,1.69642857 54.4444444,2.09821429 58,2.99107143 C58.8444444,3.16964286 59.2,1.91964286 58.3555556,1.69642857 C54.6666667,0.803571429 50.8888889,0.357142857 47.1111111,0.3125 C46.2666667,0.267857143 46.2666667,1.60714286 47.1111111,1.65178571 L47.1111111,1.65178571 Z"></path>
                            </g>
                            <g transform="translate(42.222222, 21.428571)" id="Rectangle-path" fill-rule="nonzero" fill="#333333">
                                <rect x="2.62222222" y="14.9553571" width="9.86666667" height="39.6875"></rect>
                                <rect x="2.62222222" y="0.0892857143" width="9.86666667" height="9.91071429"></rect>
                                <rect x="0.133333333" y="54.6428571" width="14.8" height="2.58928571"></rect>
                            </g>
                            <g transform="translate(9.777778, 9.821429)" id="Shape" fill-rule="nonzero" fill="#999999">
                                <path d="M0.488888889,1.42857143 C1.68888889,2.63392857 2.84444444,3.79464286 4.04444444,5 C4.66666667,5.625 5.6,4.64285714 4.97777778,4.0625 C3.77777778,2.85714286 2.62222222,1.69642857 1.42222222,0.491071429 C0.844444444,-0.133928571 -0.133333333,0.848214286 0.488888889,1.42857143 L0.488888889,1.42857143 Z"></path>
                                <path d="M4.04444444,1.42857143 C5.24444444,2.63392857 6.4,3.79464286 7.6,5 C8.22222222,5.625 9.15555556,4.64285714 8.53333333,4.0625 C7.33333333,2.85714286 6.17777778,1.69642857 4.97777778,0.491071429 C4.4,-0.133928571 3.42222222,0.848214286 4.04444444,1.42857143 L4.04444444,1.42857143 Z"></path>
                                <path d="M0.488888889,5 C1.68888889,6.20535714 2.84444444,7.36607143 4.04444444,8.57142857 C4.66666667,9.19642857 5.6,8.21428571 4.97777778,7.63392857 C3.77777778,6.42857143 2.62222222,5.26785714 1.42222222,4.0625 C0.844444444,3.4375 -0.133333333,4.41964286 0.488888889,5 L0.488888889,5 Z"></path>
                            </g>
                            <g transform="translate(80.888889, 81.250000)" id="Shape" fill-rule="nonzero" fill="#999999">
                                <path d="M8.53333333,7.63392857 C7.33333333,6.42857143 6.17777778,5.26785714 4.97777778,4.0625 C4.35555556,3.4375 3.42222222,4.41964286 4.04444444,5 C5.24444444,6.20535714 6.4,7.36607143 7.6,8.57142857 C8.22222222,9.19642857 9.15555556,8.25892857 8.53333333,7.63392857 L8.53333333,7.63392857 Z"></path>
                                <path d="M4.97777778,7.63392857 C3.77777778,6.42857143 2.62222222,5.26785714 1.42222222,4.0625 C0.8,3.4375 -0.133333333,4.41964286 0.488888889,5 C1.68888889,6.20535714 2.84444444,7.36607143 4.04444444,8.57142857 C4.66666667,9.19642857 5.6,8.25892857 4.97777778,7.63392857 L4.97777778,7.63392857 Z"></path>
                                <path d="M8.53333333,4.0625 C7.33333333,2.85714286 6.17777778,1.69642857 4.97777778,0.491071429 C4.35555556,-0.133928571 3.42222222,0.848214286 4.04444444,1.42857143 C5.24444444,2.63392857 6.4,3.79464286 7.6,5 C8.22222222,5.625 9.15555556,4.6875 8.53333333,4.0625 L8.53333333,4.0625 Z"></path>
                            </g>
                            <g transform="translate(75.555556, 33.928571)" id="Shape" fill-rule="nonzero" fill="#FFFFFF">
                                <path d="M8.53333333,7.72321429 C7.33333333,6.51785714 6.17777778,5.35714286 4.97777778,4.15178571 C4.35555556,3.52678571 3.42222222,4.50892857 4.04444444,5.08928571 C5.24444444,6.29464286 6.4,7.45535714 7.6,8.66071429 C8.22222222,9.28571429 9.15555556,8.34821429 8.53333333,7.72321429 L8.53333333,7.72321429 Z"></path>
                                <path d="M4.97777778,7.72321429 C3.77777778,6.51785714 2.62222222,5.35714286 1.42222222,4.15178571 C0.8,3.52678571 -0.133333333,4.50892857 0.488888889,5.08928571 C1.68888889,6.29464286 2.84444444,7.45535714 4.04444444,8.66071429 C4.66666667,9.28571429 5.6,8.34821429 4.97777778,7.72321429 L4.97777778,7.72321429 Z"></path>
                                <path d="M8.53333333,4.15178571 C7.33333333,2.94642857 6.17777778,1.78571429 4.97777778,0.580357143 C4.35555556,-0.0446428571 3.42222222,0.9375 4.04444444,1.51785714 C5.24444444,2.72321429 6.4,3.88392857 7.6,5.08928571 C8.22222222,5.71428571 9.15555556,4.77678571 8.53333333,4.15178571 L8.53333333,4.15178571 Z"></path>
                            </g>
                            <g transform="translate(15.111111, 52.678571)" id="Shape" fill-rule="nonzero" fill="#FFFFFF">
                                <path d="M8.53333333,7.63392857 C7.33333333,6.42857143 6.17777778,5.26785714 4.97777778,4.0625 C4.35555556,3.4375 3.42222222,4.41964286 4.04444444,5 C5.24444444,6.20535714 6.4,7.36607143 7.6,8.57142857 C8.22222222,9.19642857 9.15555556,8.25892857 8.53333333,7.63392857 L8.53333333,7.63392857 Z"></path>
                                <path d="M4.97777778,7.63392857 C3.77777778,6.42857143 2.62222222,5.26785714 1.42222222,4.0625 C0.8,3.4375 -0.133333333,4.41964286 0.488888889,5 C1.68888889,6.20535714 2.84444444,7.36607143 4.04444444,8.57142857 C4.66666667,9.19642857 5.6,8.25892857 4.97777778,7.63392857 L4.97777778,7.63392857 Z"></path>
                                <path d="M8.53333333,4.0625 C7.33333333,2.85714286 6.17777778,1.69642857 4.97777778,0.491071429 C4.35555556,-0.133928571 3.42222222,0.848214286 4.04444444,1.42857143 C5.24444444,2.63392857 6.4,3.79464286 7.6,5 C8.22222222,5.625 9.15555556,4.6875 8.53333333,4.0625 L8.53333333,4.0625 Z"></path>
                            </g>
                            <rect id="Rectangle-path" x="0.133333333" y="0" width="99.5555556" height="100"></rect>
                        </g>
                        <path d="M58.6666667,93.3035714 C78.9777778,89.1517857 93.6444444,70.7142857 93.7777778,50 C93.6444444,31.6071429 82.1777778,14.9107143 64.9777778,8.52678571 C47.6444444,2.05357143 27.4666667,7.63392857 15.7777778,22.0089286 C4.13333333,36.3839286 2.57777778,57.1428571 12.2222222,72.9910714 C21.7777778,88.7946429 40.6222222,96.9642857 58.6666667,93.3035714 Z M18,76.5625 C6.75555556,63.125 5.37777778,43.3482143 14.4888889,28.3928571 C23.4222222,13.6607143 41.1111111,5.89285714 57.9555556,9.28571429 C77.1111111,13.1696429 90.9777778,30.4464286 91.1111111,50 C90.9777778,67.3214286 80.0444444,83.2589286 63.6888889,89.1071429 C47.4666667,94.9107143 29.0666667,89.8214286 18,76.5625 Z" id="Shape" fill="#4D4D4D" fill-rule="nonzero"></path>
                    </g>
                </g>
            </g>
        </g>
    </g>
</svg>