<?xml version="1.0" encoding="UTF-8"?>
<svg width="88px" height="98px" viewBox="0 0 88 98" version="1.1" xmlns="http://www.w3.org/2000/svg" xmlns:xlink="http://www.w3.org/1999/xlink">
    <!-- Generator: Sketch 47.1 (45422) - http://www.bohemiancoding.com/sketch -->
    <title>icon/100px/join</title>
    <desc>Created with Sketch.</desc>
    <defs></defs>
    <g id="Page-1" stroke="none" stroke-width="1" fill="none" fill-rule="evenodd">
        <g id="Desktop-HD-Copy-2" transform="translate(-932.000000, -2303.000000)">
            <g id="Group-8" transform="translate(720.000000, 2266.000000)">
                <g id="icon/L/100px/join" transform="translate(206.000000, 31.000000)">
                    <g id="icon-09">
                        <g id="Group">
                            <g transform="translate(13.839286, 14.285714)" fill-rule="nonzero" id="Rectangle-path">
                                <rect fill="#E09D17" transform="translate(41.461688, 41.052857) rotate(-45.000000) translate(-41.461688, -41.052857) " x="1.06028924" y="38.5082387" width="80.8027965" height="5.08923691"></rect>
                                <rect fill="#F9C34B" transform="translate(34.318920, 33.910000) rotate(-45.000000) translate(-34.318920, -33.910000) " x="-6.08247862" y="26.3654295" width="80.8027965" height="15.089141"></rect>
                            </g>
                            <g transform="translate(14.285714, 14.285714)" id="Shape" fill-rule="nonzero">
                                <path d="M67.8571429,53.5714286 L14.2857143,0 L14.2857143,0 C6.38392857,0 0,6.38392857 0,14.2857143 L0,14.2857143 L0.803571429,15.0892857 C2.67857143,9.86607143 7.67857143,6.11607143 13.5267857,6.11607143 L13.5267857,6.11607143 L64.2857143,56.875 L64.2857143,67.8571429 L67.8571429,67.8571429 L67.8571429,53.5714286 Z" fill="#1180D3"></path>
                                <path d="M13.5267857,6.11607143 L13.5267857,6.11607143 C7.63392857,6.11607143 2.63392857,9.86607143 0.803571429,15.0892857 L53.5714286,67.8571429 L64.2857143,67.8571429 L64.2857143,56.875 L13.5267857,6.11607143 Z" fill="#3ABBED"></path>
                            </g>
                            <g transform="translate(8.035714, 8.035714)" id="Shape" fill-rule="nonzero" fill="#999999">
                                <path d="M71.2053571,50.625 C68.4821429,47.9017857 65.7589286,45.1785714 63.0357143,42.4553571 C62.4107143,41.8303571 61.4732143,42.8125 62.0982143,43.3928571 C64.8214286,46.1160714 67.5446429,48.8392857 70.2678571,51.5625 C70.8482143,52.1875 71.7857143,51.25 71.2053571,50.625 L71.2053571,50.625 Z"></path>
                                <path d="M78.1696429,57.5892857 C76.6964286,56.1160714 75.1785714,54.5982143 73.7053571,53.125 C73.0803571,52.5 72.1428571,53.4821429 72.7678571,54.0625 C74.2410714,55.5357143 75.7589286,57.0535714 77.2321429,58.5267857 C77.8125,59.1517857 78.75,58.2142857 78.1696429,57.5892857 L78.1696429,57.5892857 Z"></path>
                                <path d="M60.7142857,78.3482143 C66.3839286,78.3482143 72.0089286,78.3482143 77.6785714,78.3482143 C78.0357143,78.3482143 78.3482143,78.0357143 78.3482143,77.6785714 C78.3482143,71.8303571 78.3482143,66.0267857 78.3482143,60.1785714 C78.3482143,59.3303571 77.0089286,59.3303571 77.0089286,60.1785714 C77.0089286,66.0267857 77.0089286,71.8303571 77.0089286,77.6785714 C77.2321429,77.4553571 77.4553571,77.2321429 77.6785714,77.0089286 C72.0089286,77.0089286 66.3839286,77.0089286 60.7142857,77.0089286 C59.8660714,77.0089286 59.8660714,78.3482143 60.7142857,78.3482143 L60.7142857,78.3482143 Z"></path>
                                <path d="M58.5267857,77.1875 C53.7053571,72.3660714 48.8392857,67.5 44.0178571,62.6785714 C43.3928571,62.0535714 42.4553571,63.0357143 43.0803571,63.6160714 C47.9017857,68.4375 52.7678571,73.3035714 57.5892857,78.125 C58.2142857,78.75 59.1517857,77.8125 58.5267857,77.1875 L58.5267857,77.1875 Z"></path>
                                <path d="M47.0982143,67.4107143 C47.9464286,67.4107143 47.9464286,66.0714286 47.0982143,66.0714286 C46.25,66.0714286 46.25,67.4107143 47.0982143,67.4107143 L47.0982143,67.4107143 Z"></path>
                                <path d="M18.2589286,38.8392857 C19.5089286,40.0892857 20.7142857,41.2946429 21.9642857,42.5446429 C22.5892857,43.1696429 23.5267857,42.1875 22.9017857,41.6071429 C21.6517857,40.3571429 20.4464286,39.1517857 19.1964286,37.9017857 C18.6160714,37.2767857 17.6785714,38.2142857 18.2589286,38.8392857 L18.2589286,38.8392857 Z"></path>
                                <path d="M3.39285714,23.9732143 C7.94642857,28.5267857 12.5,33.0803571 17.0535714,37.6339286 C17.6785714,38.2589286 18.6160714,37.2767857 17.9910714,36.6964286 C13.4821429,32.1428571 8.92857143,27.5892857 4.375,23.0357143 C3.75,22.4107143 2.8125,23.3482143 3.39285714,23.9732143 L3.39285714,23.9732143 Z"></path>
                                <path d="M9.0625,5.40178571 C4.10714286,9.33035714 1.20535714,15.1785714 1.20535714,21.4732143 C1.20535714,22.3214286 2.54464286,22.3214286 2.54464286,21.4732143 C2.54464286,15.4464286 5.3125,10.0446429 10,6.33928571 C10.6696429,5.80357143 9.73214286,4.86607143 9.0625,5.40178571 L9.0625,5.40178571 Z"></path>
                                <path d="M21.4732143,1.20535714 C18.8392857,1.20535714 16.3392857,1.69642857 13.8839286,2.63392857 C13.0803571,2.94642857 13.4375,4.24107143 14.2410714,3.92857143 C16.5625,3.03571429 18.9732143,2.58928571 21.4732143,2.54464286 C22.3660714,2.54464286 22.3660714,1.20535714 21.4732143,1.20535714 L21.4732143,1.20535714 Z"></path>
                                <path d="M31.6964286,11.1160714 C29.1964286,8.61607143 26.7410714,6.16071429 24.2410714,3.66071429 C23.6160714,3.03571429 22.6785714,4.01785714 23.3035714,4.59821429 C25.8035714,7.09821429 28.2589286,9.55357143 30.7589286,12.0535714 C31.3392857,12.6785714 32.2767857,11.7410714 31.6964286,11.1160714 L31.6964286,11.1160714 Z"></path>
                                <path d="M38.6607143,18.125 C37.2767857,16.7410714 35.8928571,15.3571429 34.5089286,13.9732143 C33.8839286,13.3482143 32.9464286,14.3303571 33.5714286,14.9107143 C34.9553571,16.2946429 36.3392857,17.6785714 37.7232143,19.0625 C38.3035714,19.6875 39.2857143,18.7053571 38.6607143,18.125 L38.6607143,18.125 Z"></path>
                                <path d="M41.2946429,20.7589286 C40.9375,20.4017857 40.625,20.0892857 40.2678571,19.7321429 C40,19.4642857 39.5982143,19.4642857 39.3303571,19.7321429 C39.0625,20 39.0625,20.4017857 39.3303571,20.6696429 C39.6875,21.0267857 40,21.3392857 40.3571429,21.6964286 C40.625,21.9642857 41.0267857,21.9642857 41.2946429,21.6964286 C41.5625,21.4285714 41.5625,21.0267857 41.2946429,20.7589286 L41.2946429,20.7589286 Z"></path>
                                <path d="M40.0892857,64.2857143 C40.9375,64.2857143 40.9375,62.9464286 40.0892857,62.9464286 C39.2410714,62.9464286 39.2410714,64.2857143 40.0892857,64.2857143 L40.0892857,64.2857143 Z"></path>
                                <path d="M28.8392857,75.8035714 C32.2767857,72.3660714 35.6696429,68.9732143 39.1071429,65.5357143 C39.7321429,64.9107143 38.75,63.9732143 38.1696429,64.5982143 C34.7321429,68.0357143 31.3392857,71.4285714 27.9017857,74.8660714 C27.2767857,75.4464286 28.2142857,76.3839286 28.8392857,75.8035714 L28.8392857,75.8035714 Z"></path>
                                <path d="M16.4732143,79.9553571 C17.6785714,81.1607143 18.8839286,82.3660714 20.0892857,83.5714286 C20.3571429,83.8392857 20.7589286,83.8392857 21.0267857,83.5714286 C22.9017857,81.6964286 24.7767857,79.8214286 26.6517857,77.9464286 C27.2767857,77.3214286 26.2946429,76.3839286 25.7142857,77.0089286 C23.8392857,78.8839286 21.9642857,80.7589286 20.0892857,82.6339286 C20.4017857,82.6339286 20.7142857,82.6339286 21.0267857,82.6339286 C19.8214286,81.4285714 18.6160714,80.2232143 17.4107143,79.0178571 C16.8303571,78.3928571 15.8928571,79.3303571 16.4732143,79.9553571 L16.4732143,79.9553571 Z"></path>
                                <path d="M5.26785714,68.7053571 C7.58928571,71.0267857 9.86607143,73.3035714 12.1875,75.625 C12.8125,76.25 13.75,75.2678571 13.125,74.6875 C10.8035714,72.3660714 8.52678571,70.0892857 6.20535714,67.7678571 C5.58035714,67.1428571 4.64285714,68.0803571 5.26785714,68.7053571 L5.26785714,68.7053571 Z"></path>
                                <path d="M6.25,57.2767857 C4.33035714,59.1964286 2.41071429,61.1160714 0.535714286,62.9910714 C0.267857143,63.2589286 0.267857143,63.6607143 0.535714286,63.9285714 C1.60714286,65 2.67857143,66.0714286 3.79464286,67.1875 C4.41964286,67.8125 5.35714286,66.8303571 4.73214286,66.25 C3.66071429,65.1785714 2.58928571,64.1071429 1.47321429,62.9910714 C1.47321429,63.3035714 1.47321429,63.6160714 1.47321429,63.9285714 C3.39285714,62.0089286 5.3125,60.0892857 7.1875,58.2142857 C7.8125,57.6339286 6.83035714,56.6517857 6.25,57.2767857 L6.25,57.2767857 Z"></path>
                                <path d="M14.8214286,48.7053571 C12.4553571,51.0714286 10.0892857,53.4375 7.76785714,55.7589286 C7.14285714,56.3839286 8.125,57.3214286 8.70535714,56.6964286 C11.0714286,54.3303571 13.4375,51.9642857 15.7589286,49.6428571 C16.3839286,49.0625 15.4464286,48.0803571 14.8214286,48.7053571 L14.8214286,48.7053571 Z"></path>
                                <path d="M21.9642857,41.5625 C20.2678571,43.2589286 18.5714286,44.9553571 16.8303571,46.6964286 C16.2053571,47.3214286 17.1875,48.2589286 17.7678571,47.6339286 C19.4642857,45.9375 21.1607143,44.2410714 22.9017857,42.5 C23.5267857,41.9196429 22.5892857,40.9375 21.9642857,41.5625 L21.9642857,41.5625 Z"></path>
                                <path d="M45.7142857,17.8125 C45.0892857,18.4375 44.5089286,19.0178571 43.8839286,19.6428571 C43.2589286,20.2678571 44.2410714,21.2053571 44.8214286,20.5803571 C45.4464286,19.9553571 46.0267857,19.375 46.6517857,18.75 C47.2767857,18.1696429 46.3392857,17.1875 45.7142857,17.8125 L45.7142857,17.8125 Z"></path>
                                <path d="M57.3660714,6.16071429 C54.0625,9.46428571 50.8035714,12.7232143 47.5,16.0267857 C46.875,16.6517857 47.8571429,17.5892857 48.4375,16.9642857 C51.7410714,13.6607143 55,10.4017857 58.3035714,7.09821429 C58.8839286,6.51785714 57.9464286,5.58035714 57.3660714,6.16071429 L57.3660714,6.16071429 Z"></path>
                                <path d="M70.7142857,7.27678571 C68.4821429,5.04464286 66.2053571,2.76785714 63.9732143,0.535714286 C63.7053571,0.267857143 63.3035714,0.267857143 63.0357143,0.535714286 C61.6964286,1.875 60.3571429,3.21428571 59.0178571,4.55357143 C58.3928571,5.17857143 59.375,6.11607143 59.9553571,5.49107143 C61.2946429,4.15178571 62.6339286,2.8125 63.9732143,1.47321429 C63.6607143,1.47321429 63.3482143,1.47321429 63.0357143,1.47321429 C65.2678571,3.70535714 67.5446429,5.98214286 69.7767857,8.21428571 C70.3571429,8.83928571 71.2946429,7.90178571 70.7142857,7.27678571 L70.7142857,7.27678571 Z"></path>
                                <path d="M80.3125,24.2857143 C81.3839286,23.2142857 82.4553571,22.1428571 83.5267857,21.0714286 C83.7946429,20.8035714 83.7946429,20.4017857 83.5267857,20.1339286 C80.7589286,17.3660714 78.0357143,14.6428571 75.2678571,11.875 C74.6428571,11.25 73.7053571,12.2321429 74.3303571,12.8125 C77.0982143,15.5803571 79.8214286,18.3035714 82.5892857,21.0714286 C82.5892857,20.7589286 82.5892857,20.4464286 82.5892857,20.1339286 C81.5178571,21.2053571 80.4464286,22.2767857 79.375,23.3482143 C78.75,23.9732143 79.7321429,24.9107143 80.3125,24.2857143 L80.3125,24.2857143 Z"></path>
                                <path d="M64.5089286,40.1339286 C69.2857143,35.3571429 74.1071429,30.5357143 78.8839286,25.7589286 C79.5089286,25.1339286 78.5267857,24.1964286 77.9464286,24.8214286 C73.1696429,29.5982143 68.3482143,34.4196429 63.5714286,39.1964286 C62.9464286,39.7767857 63.8839286,40.7142857 64.5089286,40.1339286 L64.5089286,40.1339286 Z"></path>
                                <path d="M62.6339286,41.6964286 C63.4821429,41.6964286 63.4821429,40.3571429 62.6339286,40.3571429 C61.7857143,40.3571429 61.7857143,41.6964286 62.6339286,41.6964286 L62.6339286,41.6964286 Z"></path>
                            </g>
                            <g transform="translate(6.250000, 46.428571)" id="Shape" fill-rule="nonzero" fill="#999999">
                                <path d="M1.38392857,8.61607143 C2.58928571,7.41071429 3.75,6.25 4.95535714,5.04464286 C5.58035714,4.41964286 4.59821429,3.48214286 4.01785714,4.10714286 C2.8125,5.3125 1.65178571,6.47321429 0.446428571,7.67857143 C-0.178571429,8.25892857 0.758928571,9.19642857 1.38392857,8.61607143 L1.38392857,8.61607143 Z"></path>
                                <path d="M1.38392857,5.04464286 C2.58928571,3.83928571 3.75,2.67857143 4.95535714,1.47321429 C5.58035714,0.848214286 4.59821429,-0.0892857143 4.01785714,0.535714286 C2.8125,1.74107143 1.65178571,2.90178571 0.446428571,4.10714286 C-0.178571429,4.6875 0.758928571,5.625 1.38392857,5.04464286 L1.38392857,5.04464286 Z"></path>
                                <path d="M4.95535714,8.61607143 C6.16071429,7.41071429 7.32142857,6.25 8.52678571,5.04464286 C9.15178571,4.41964286 8.16964286,3.48214286 7.58928571,4.10714286 C6.38392857,5.3125 5.22321429,6.47321429 4.01785714,7.67857143 C3.39285714,8.25892857 4.33035714,9.19642857 4.95535714,8.61607143 L4.95535714,8.61607143 Z"></path>
                            </g>
                            <g transform="translate(45.535714, 6.250000)" id="Shape" fill-rule="nonzero" fill="#999999">
                                <path d="M8.57142857,7.54464286 C7.36607143,6.33928571 6.20535714,5.17857143 5,3.97321429 C4.375,3.34821429 3.4375,4.33035714 4.0625,4.91071429 C5.26785714,6.11607143 6.42857143,7.27678571 7.63392857,8.48214286 C8.25892857,9.10714286 9.19642857,8.16964286 8.57142857,7.54464286 L8.57142857,7.54464286 Z"></path>
                                <path d="M5,7.54464286 C3.79464286,6.33928571 2.63392857,5.17857143 1.42857143,3.97321429 C0.803571429,3.34821429 -0.133928571,4.33035714 0.491071429,4.91071429 C1.69642857,6.11607143 2.85714286,7.27678571 4.0625,8.48214286 C4.6875,9.10714286 5.625,8.16964286 5,7.54464286 L5,7.54464286 Z"></path>
                                <path d="M8.57142857,3.97321429 C7.36607143,2.76785714 6.20535714,1.60714286 5,0.401785714 C4.375,-0.223214286 3.4375,0.758928571 4.0625,1.33928571 C5.26785714,2.54464286 6.42857143,3.70535714 7.63392857,4.91071429 C8.25892857,5.53571429 9.19642857,4.59821429 8.57142857,3.97321429 L8.57142857,3.97321429 Z"></path>
                            </g>
                            <g transform="translate(45.535714, 84.821429)" id="Shape" fill-rule="nonzero" fill="#999999">
                                <path d="M1.33928571,8.52678571 C2.54464286,7.32142857 3.70535714,6.16071429 4.91071429,4.95535714 C5.53571429,4.33035714 4.55357143,3.39285714 3.97321429,4.01785714 C2.76785714,5.22321429 1.60714286,6.38392857 0.401785714,7.58928571 C-0.223214286,8.16964286 0.758928571,9.10714286 1.33928571,8.52678571 L1.33928571,8.52678571 Z"></path>
                                <path d="M1.33928571,4.95535714 C2.54464286,3.75 3.70535714,2.58928571 4.91071429,1.38392857 C5.53571429,0.758928571 4.55357143,-0.178571429 3.97321429,0.446428571 C2.76785714,1.65178571 1.60714286,2.8125 0.401785714,4.01785714 C-0.223214286,4.59821429 0.758928571,5.53571429 1.33928571,4.95535714 L1.33928571,4.95535714 Z"></path>
                                <path d="M4.91071429,8.52678571 C6.11607143,7.32142857 7.27678571,6.16071429 8.48214286,4.95535714 C9.10714286,4.33035714 8.125,3.39285714 7.54464286,4.01785714 C6.33928571,5.22321429 5.17857143,6.38392857 3.97321429,7.58928571 C3.34821429,8.16964286 4.33035714,9.10714286 4.91071429,8.52678571 L4.91071429,8.52678571 Z"></path>
                            </g>
                            <g transform="translate(84.821429, 45.535714)" id="Shape" fill-rule="nonzero" fill="#999999">
                                <path d="M8.52678571,7.54464286 C7.32142857,6.33928571 6.16071429,5.17857143 4.95535714,3.97321429 C4.33035714,3.34821429 3.39285714,4.33035714 4.01785714,4.91071429 C5.22321429,6.11607143 6.38392857,7.27678571 7.58928571,8.48214286 C8.16964286,9.10714286 9.10714286,8.16964286 8.52678571,7.54464286 L8.52678571,7.54464286 Z"></path>
                                <path d="M4.95535714,7.54464286 C3.75,6.33928571 2.58928571,5.17857143 1.38392857,3.97321429 C0.758928571,3.34821429 -0.178571429,4.33035714 0.446428571,4.91071429 C1.65178571,6.11607143 2.8125,7.27678571 4.01785714,8.48214286 C4.59821429,9.10714286 5.53571429,8.16964286 4.95535714,7.54464286 L4.95535714,7.54464286 Z"></path>
                                <path d="M8.52678571,3.97321429 C7.32142857,2.76785714 6.16071429,1.60714286 4.95535714,0.401785714 C4.33035714,-0.223214286 3.39285714,0.758928571 4.01785714,1.33928571 C5.22321429,2.54464286 6.38392857,3.70535714 7.58928571,4.91071429 C8.16964286,5.53571429 9.10714286,4.59821429 8.52678571,3.97321429 L8.52678571,3.97321429 Z"></path>
                            </g>
                            <rect id="Rectangle-path" x="0" y="0" width="100" height="100"></rect>
                        </g>
                        <g id="Group" transform="translate(12.053571, 12.053571)" fill-rule="nonzero" fill="#4D4D4D">
                            <path d="M16.5178571,0.892857143 C7.90178571,0.892857143 0.892857143,7.90178571 0.892857143,16.5178571 L0.892857143,17.0535714 L55.2678571,71.4285714 L71.4285714,71.4285714 L71.4285714,55.2678571 L17.0535714,0.892857143 L16.5178571,0.892857143 Z M15.9821429,3.57142857 L20.7142857,8.30357143 C14.4642857,9.50892857 9.50892857,14.4196429 8.30357143,20.7142857 L3.57142857,15.9821429 C3.83928571,9.28571429 9.28571429,3.83928571 15.9821429,3.57142857 Z M64.2857143,68.75 L59.0178571,68.75 L68.75,59.0178571 L68.75,64.2857143 L64.2857143,68.75 Z M55.8035714,68.2142857 L10.7142857,23.125 C10.9821429,16.4285714 16.3839286,11.0267857 23.125,10.7142857 L68.2142857,55.8035714 L55.8035714,68.2142857 Z" id="Shape"></path>
                            <polygon id="Shape" points="39.6428571 20.0892857 44.1517857 24.5982143 46.0267857 22.7232143 43.3928571 20.0892857 45.0892857 18.3928571 51.2946429 24.5982143 53.1696429 22.7232143 46.9642857 16.5178571 48.6607143 14.8214286 51.2946429 17.4553571 53.1696429 15.5803571 50.5357143 12.9464286 52.2321429 11.25 58.4375 17.4553571 60.3125 15.5803571 54.1071429 9.375 55.8035714 7.67857143 58.4375 10.3125 60.3125 8.4375 57.6785714 5.80357143 59.375 4.10714286 71.7857143 16.5178571 54.8660714 33.4375 56.7410714 35.3125 75.5357143 16.5178571 59.375 0.357142857"></polygon>
                            <polygon id="Shape" points="16.5178571 71.7857143 4.10714286 59.375 5.80357143 57.6785714 8.4375 60.3125 10.3125 58.4375 7.67857143 55.8035714 9.375 54.1071429 15.5803571 60.3125 17.4553571 58.4375 11.25 52.2321429 12.9464286 50.5357143 15.5803571 53.1696429 17.4553571 51.2946429 14.8214286 48.6607143 16.5178571 46.9642857 22.7232143 53.1696429 24.5982143 51.2946429 18.3928571 45.0892857 20.0892857 43.3928571 22.7232143 46.0267857 24.5982143 44.1517857 20.0892857 39.6428571 0.357142857 59.375 16.5178571 75.5357143 35.3125 56.7410714 33.4375 54.8660714"></polygon>
                        </g>
                    </g>
                </g>
            </g>
        </g>
    </g>
</svg>