<?xml version="1.0" encoding="utf-8"?>
<!-- Generator: Adobe Illustrator 22.0.0, SVG Export Plug-In . SVG Version: 6.00 Build 0)  -->
<svg version="1.1" id="Capa_1" xmlns="http://www.w3.org/2000/svg" xmlns:xlink="http://www.w3.org/1999/xlink" x="0px" y="0px"
	 viewBox="0 0 333.2 116.6" style="enable-background:new 0 0 333.2 116.6;" xml:space="preserve">
<style type="text/css">
	.st0{fill:#FFFFFF;}
</style>
<g>
	<g>
		<path class="st0" d="M251.7,25.4h-16.6v44.3h-10V25.4h-16.6v-9.2h43.2V25.4z"/>
		<path class="st0" d="M50.2,25.9l-6.9,6.6c-4.7-5-10-7.4-15.8-7.4c-5,0-9.1,1.7-12.5,5.1s-5.1,7.6-5.1,12.5c0,3.5,0.8,6.5,2.3,9.2
			s3.6,4.8,6.4,6.3c2.7,1.5,5.8,2.3,9.2,2.3c2.9,0,5.5-0.5,7.9-1.6c2.4-1.1,5-3,7.8-5.8l6.7,7c-3.8,3.7-7.5,6.3-10.9,7.8
			c-3.4,1.4-7.3,2.2-11.7,2.2c-8.1,0-14.7-2.6-19.8-7.7C2.6,57.2,0,50.7,0,42.7c0-5.2,1.2-9.8,3.5-13.8c2.3-4,5.7-7.2,10-9.7
			c4.4-2.4,9.1-3.7,14.1-3.7c4.3,0,8.4,0.9,12.4,2.7C44,20,47.4,22.6,50.2,25.9z"/>
		<path class="st0" d="M55.8,15.5h9.6v53.2h-9.6V15.5z"/>
		<path class="st0" d="M92.2,29.3c3.6,0,7,0.9,10.2,2.7c3.2,1.8,5.7,4.3,7.5,7.4c1.8,3.1,2.7,6.5,2.7,10c0,3.6-0.9,7-2.7,10.2
			c-1.8,3.2-4.2,5.6-7.3,7.4c-3.1,1.8-6.5,2.7-10.3,2.7c-5.5,0-10.2-2-14.1-5.9c-3.9-3.9-5.8-8.7-5.8-14.3c0-6,2.2-11,6.6-15
			C82.7,31.1,87.2,29.3,92.2,29.3z M92.3,38.4c-3,0-5.5,1-7.5,3.1c-2,2.1-3,4.7-3,8c0,3.3,1,6,2.9,8.1c2,2.1,4.5,3.1,7.5,3.1
			c3,0,5.5-1,7.5-3.1c2-2.1,3-4.8,3-8.1c0-3.3-1-6-2.9-8C97.9,39.4,95.4,38.4,92.3,38.4z"/>
		<path class="st0" d="M120.3,30.3h9.7v18.5c0,3.6,0.2,6.1,0.7,7.5c0.5,1.4,1.3,2.5,2.4,3.3c1.1,0.8,2.4,1.2,4,1.2
			c1.6,0,3-0.4,4.1-1.1c1.1-0.8,1.9-1.9,2.5-3.4c0.4-1.1,0.6-3.5,0.6-7.1V30.3h9.6v16.3c0,6.7-0.5,11.3-1.6,13.7
			c-1.3,3-3.2,5.3-5.7,6.9c-2.5,1.6-5.7,2.4-9.6,2.4c-4.2,0-7.6-0.9-10.2-2.8c-2.6-1.9-4.4-4.5-5.5-7.9c-0.8-2.3-1.1-6.6-1.1-12.7
			V30.3z"/>
		<path class="st0" d="M192,15.5h9.6v53.2H192v-4.1c-1.9,1.8-3.8,3.1-5.7,3.9c-1.9,0.8-3.9,1.2-6.1,1.2c-5,0-9.2-1.9-12.9-5.8
			c-3.6-3.8-5.4-8.6-5.4-14.3c0-5.9,1.7-10.8,5.2-14.6c3.5-3.8,7.7-5.7,12.7-5.7c2.3,0,4.5,0.4,6.5,1.3c2,0.9,3.9,2.2,5.6,3.9V15.5z
			 M181.9,38.2c-3,0-5.4,1.1-7.4,3.2c-2,2.1-3,4.8-3,8.1c0,3.3,1,6,3,8.2c2,2.1,4.5,3.2,7.4,3.2c3,0,5.5-1.1,7.5-3.2
			c2-2.1,3-4.9,3-8.3c0-3.3-1-6-3-8.1C187.4,39.3,184.9,38.2,181.9,38.2z"/>
		<path class="st0" d="M265,29.3c3.6,0,7,0.9,10.2,2.7c3.2,1.8,5.7,4.3,7.5,7.4c1.8,3.1,2.7,6.5,2.7,10c0,3.6-0.9,7-2.7,10.2
			c-1.8,3.2-4.2,5.6-7.3,7.4c-3.1,1.8-6.5,2.7-10.3,2.7c-5.5,0-10.2-2-14.1-5.9c-3.9-3.9-5.8-8.7-5.8-14.3c0-6,2.2-11,6.6-15
			C255.6,31.1,260,29.3,265,29.3z M265.2,38.4c-3,0-5.5,1-7.5,3.1c-2,2.1-3,4.7-3,8c0,3.3,1,6,2.9,8.1c2,2.1,4.5,3.1,7.5,3.1
			c3,0,5.5-1,7.5-3.1c2-2.1,3-4.8,3-8.1c0-3.3-1-6-2.9-8C270.8,39.4,268.3,38.4,265.2,38.4z"/>
		<path class="st0" d="M302.8,30.3v4.2c1.7-1.7,3.6-3,5.6-3.9c2-0.9,4.2-1.3,6.5-1.3c5,0,9.3,1.9,12.8,5.7c3.5,3.8,5.3,8.6,5.3,14.6
			c0,5.7-1.8,10.5-5.4,14.3c-3.6,3.8-7.9,5.8-12.9,5.8c-2.2,0-4.3-0.4-6.2-1.2c-1.9-0.8-3.8-2.1-5.7-3.9v18.1h-9.6V30.3H302.8z
			 M312.9,38.2c-3,0-5.5,1-7.5,3.1c-2,2.1-3,4.8-3,8.1c0,3.4,1,6.2,3,8.3c2,2.1,4.5,3.2,7.5,3.2c2.9,0,5.4-1.1,7.4-3.2
			c2-2.1,3-4.9,3-8.2c0-3.3-1-6-3-8.1C318.4,39.3,315.9,38.2,312.9,38.2z"/>
	</g>
	<path class="st0" d="M0.3,86.3h3v29.7h-3V86.3z"/>
	<path class="st0" d="M9.7,94.1h2.8V98c1.1-1.5,2.4-2.6,3.8-3.4c1.4-0.7,2.9-1.1,4.5-1.1c1.6,0,3.1,0.4,4.4,1.3
		c1.3,0.8,2.2,2,2.8,3.4c0.6,1.4,0.9,3.6,0.9,6.6v11.3H26v-10.5c0-2.5-0.1-4.2-0.3-5.1c-0.3-1.5-1-2.6-1.9-3.3
		c-0.9-0.7-2.1-1.1-3.6-1.1c-1.7,0-3.2,0.6-4.6,1.7c-1.4,1.1-2.2,2.5-2.7,4.2c-0.3,1.1-0.4,3.1-0.4,6v8.1H9.7V94.1z"/>
	<path class="st0" d="M37.4,85.9h2.8v8.2h4.5v2.4h-4.5v19.6h-2.8V96.5h-3.9v-2.4h3.9V85.9z"/>
	<path class="st0" d="M67.5,108.8l2.4,1.3c-0.8,1.5-1.7,2.8-2.7,3.7c-1,0.9-2.2,1.7-3.5,2.2c-1.3,0.5-2.7,0.7-4.4,0.7
		c-3.6,0-6.4-1.2-8.4-3.5c-2-2.4-3-5-3-8c0-2.8,0.9-5.3,2.6-7.5c2.2-2.8,5.1-4.2,8.7-4.2c3.8,0,6.7,1.4,9,4.3c1.6,2,2.4,4.5,2.4,7.5
		H50.8c0.1,2.6,0.9,4.6,2.4,6.3c1.6,1.6,3.5,2.5,5.9,2.5c1.1,0,2.2-0.2,3.3-0.6c1.1-0.4,2-0.9,2.7-1.6
		C65.8,111.2,66.6,110.2,67.5,108.8z M67.5,102.8c-0.4-1.5-0.9-2.7-1.7-3.6c-0.7-0.9-1.7-1.6-2.9-2.2c-1.2-0.6-2.4-0.8-3.7-0.8
		c-2.2,0-4,0.7-5.6,2.1c-1.1,1-2,2.5-2.6,4.5H67.5z"/>
	<path class="st0" d="M74.8,94.1h2.9v3.2c0.9-1.3,1.8-2.2,2.7-2.8c1-0.6,2-0.9,3-0.9c0.8,0,1.6,0.2,2.5,0.7l-1.5,2.4
		c-0.6-0.3-1.1-0.4-1.5-0.4c-0.9,0-1.9,0.4-2.7,1.2c-0.9,0.8-1.5,2-2,3.6c-0.4,1.3-0.5,3.8-0.5,7.6v7.4h-2.9V94.1z"/>
	<path class="st0" d="M88.3,94.1h2.8V98c1.1-1.5,2.4-2.6,3.8-3.4c1.4-0.7,2.9-1.1,4.5-1.1c1.6,0,3.1,0.4,4.4,1.3
		c1.3,0.8,2.2,2,2.8,3.4c0.6,1.4,0.9,3.6,0.9,6.6v11.3h-2.8v-10.5c0-2.5-0.1-4.2-0.3-5.1c-0.3-1.5-1-2.6-1.9-3.3
		c-0.9-0.7-2.1-1.1-3.6-1.1c-1.7,0-3.2,0.6-4.6,1.7c-1.4,1.1-2.2,2.5-2.7,4.2c-0.3,1.1-0.4,3.1-0.4,6v8.1h-2.8V94.1z"/>
	<path class="st0" d="M135.5,94.1v22h-2.8v-3.8c-1.2,1.4-2.5,2.5-4,3.3c-1.5,0.7-3.1,1.1-4.8,1.1c-3.1,0-5.8-1.1-8-3.4
		c-2.2-2.3-3.3-5-3.3-8.2c0-3.2,1.1-5.9,3.3-8.1c2.2-2.3,4.9-3.4,8-3.4c1.8,0,3.4,0.4,4.9,1.2c1.5,0.8,2.7,1.9,3.9,3.5v-4H135.5z
		 M124.2,96.2c-1.6,0-3,0.4-4.4,1.2c-1.3,0.8-2.4,1.9-3.2,3.3c-0.8,1.4-1.2,2.9-1.2,4.4c0,1.5,0.4,3,1.2,4.4
		c0.8,1.4,1.9,2.5,3.2,3.3c1.3,0.8,2.8,1.2,4.3,1.2c1.5,0,3-0.4,4.4-1.2c1.4-0.8,2.5-1.8,3.2-3.2s1.1-2.8,1.1-4.5
		c0-2.5-0.8-4.7-2.5-6.4C128.7,97.1,126.6,96.2,124.2,96.2z"/>
	<path class="st0" d="M144.3,85.9h2.8v8.2h4.5v2.4h-4.5v19.6h-2.8V96.5h-3.9v-2.4h3.9V85.9z"/>
	<path class="st0" d="M156.9,85c0.6,0,1.2,0.2,1.7,0.7c0.5,0.5,0.7,1,0.7,1.7c0,0.6-0.2,1.2-0.7,1.6c-0.5,0.5-1,0.7-1.7,0.7
		c-0.6,0-1.2-0.2-1.6-0.7c-0.5-0.5-0.7-1-0.7-1.6c0-0.6,0.2-1.2,0.7-1.7C155.7,85.2,156.2,85,156.9,85z M155.5,94.1h2.8v22h-2.8
		V94.1z"/>
	<path class="st0" d="M174.6,93.5c3.4,0,6.2,1.2,8.4,3.7c2,2.2,3,4.9,3,7.9c0,3.1-1.1,5.8-3.2,8.1c-2.1,2.3-4.9,3.4-8.3,3.4
		c-3.4,0-6.1-1.1-8.3-3.4c-2.1-2.3-3.2-5-3.2-8.1c0-3,1-5.7,3-7.9C168.4,94.7,171.2,93.5,174.6,93.5z M174.6,96.3
		c-2.4,0-4.4,0.9-6.1,2.6c-1.7,1.7-2.5,3.8-2.5,6.3c0,1.6,0.4,3.1,1.2,4.4c0.8,1.4,1.8,2.4,3.1,3.2c1.3,0.7,2.8,1.1,4.3,1.1
		c1.6,0,3-0.4,4.3-1.1c1.3-0.7,2.4-1.8,3.1-3.2c0.8-1.4,1.2-2.9,1.2-4.4c0-2.5-0.8-4.6-2.5-6.3C178.9,97.1,176.9,96.3,174.6,96.3z"
		/>
	<path class="st0" d="M191.3,94.1h2.8V98c1.1-1.5,2.4-2.6,3.8-3.4c1.4-0.7,2.9-1.1,4.5-1.1c1.6,0,3.1,0.4,4.4,1.3
		c1.3,0.8,2.2,2,2.8,3.4c0.6,1.4,0.9,3.6,0.9,6.6v11.3h-2.8v-10.5c0-2.5-0.1-4.2-0.3-5.1c-0.3-1.5-1-2.6-1.9-3.3
		c-0.9-0.7-2.1-1.1-3.6-1.1c-1.7,0-3.2,0.6-4.6,1.7c-1.4,1.1-2.2,2.5-2.7,4.2c-0.3,1.1-0.4,3.1-0.4,6v8.1h-2.8V94.1z"/>
	<path class="st0" d="M238.5,94.1v22h-2.8v-3.8c-1.2,1.4-2.5,2.5-4,3.3c-1.5,0.7-3.1,1.1-4.8,1.1c-3.1,0-5.8-1.1-8-3.4
		c-2.2-2.3-3.3-5-3.3-8.2c0-3.2,1.1-5.9,3.3-8.1c2.2-2.3,4.9-3.4,8-3.4c1.8,0,3.4,0.4,4.9,1.2c1.5,0.8,2.7,1.9,3.9,3.5v-4H238.5z
		 M227.1,96.2c-1.6,0-3,0.4-4.4,1.2c-1.3,0.8-2.4,1.9-3.2,3.3c-0.8,1.4-1.2,2.9-1.2,4.4c0,1.5,0.4,3,1.2,4.4
		c0.8,1.4,1.9,2.5,3.2,3.3c1.3,0.8,2.8,1.2,4.3,1.2c1.5,0,3-0.4,4.4-1.2c1.4-0.8,2.5-1.8,3.2-3.2s1.1-2.8,1.1-4.5
		c0-2.5-0.8-4.7-2.5-6.4C231.7,97.1,229.6,96.2,227.1,96.2z"/>
	<path class="st0" d="M244.4,85.6h2.8v30.5h-2.8V85.6z"/>
	<path class="st0" d="M266.1,86.3h3v29.7h-3V86.3z"/>
	<path class="st0" d="M275.4,94.1h2.8V98c1.1-1.5,2.4-2.6,3.8-3.4c1.4-0.7,2.9-1.1,4.5-1.1c1.6,0,3.1,0.4,4.4,1.3
		c1.3,0.8,2.2,2,2.8,3.4c0.6,1.4,0.9,3.6,0.9,6.6v11.3h-2.8v-10.5c0-2.5-0.1-4.2-0.3-5.1c-0.3-1.5-1-2.6-1.9-3.3
		c-0.9-0.7-2.1-1.1-3.6-1.1c-1.7,0-3.2,0.6-4.6,1.7c-1.4,1.1-2.2,2.5-2.7,4.2c-0.3,1.1-0.4,3.1-0.4,6v8.1h-2.8V94.1z"/>
	<path class="st0" d="M322,98.6l-2.2,1.4c-1.9-2.6-4.6-3.9-7.9-3.9c-2.7,0-4.9,0.9-6.7,2.6c-1.8,1.7-2.7,3.8-2.7,6.3
		c0,1.6,0.4,3.1,1.2,4.5s1.9,2.5,3.4,3.3c1.4,0.8,3,1.2,4.8,1.2c3.2,0,5.9-1.3,7.9-3.9l2.2,1.5c-1.1,1.6-2.5,2.8-4.2,3.7
		c-1.8,0.9-3.8,1.3-6.1,1.3c-3.5,0-6.4-1.1-8.7-3.3c-2.3-2.2-3.4-4.9-3.4-8.1c0-2.1,0.5-4.1,1.6-5.9c1.1-1.8,2.5-3.3,4.4-4.3
		c1.9-1,4-1.5,6.3-1.5c1.5,0,2.9,0.2,4.2,0.7c1.4,0.4,2.5,1,3.4,1.7C320.5,96.6,321.3,97.5,322,98.6z"/>
	<path class="st0" d="M330.5,111.6c0.7,0,1.3,0.2,1.8,0.7c0.5,0.5,0.7,1.1,0.7,1.8c0,0.7-0.2,1.3-0.7,1.8s-1.1,0.7-1.8,0.7
		s-1.3-0.2-1.8-0.7c-0.5-0.5-0.7-1.1-0.7-1.8c0-0.7,0.2-1.3,0.7-1.8C329.3,111.8,329.9,111.6,330.5,111.6z"/>
	<g>
		<path class="st0" d="M219.5,11.7l9.9-11.3c0,0,0.8-0.8,1.6,0S241.7,12,241.7,12s-2.1,0.6-4,3.2c0,0-2.7-3.7-7.3-3.3
			c-4.6,0.4-6.1,3.1-6.1,3.1S222.7,12.6,219.5,11.7z"/>
	</g>
</g>
</svg>
