<?xml version="1.0" encoding="utf-8"?>
<!-- Generator: Adobe Illustrator 22.0.0, SVG Export Plug-In . SVG Version: 6.00 Build 0)  -->
<svg version="1.1" id="Capa_1" xmlns="http://www.w3.org/2000/svg" xmlns:xlink="http://www.w3.org/1999/xlink" x="0px" y="0px"
	 viewBox="0 0 333.2 83.4" style="enable-background:new 0 0 333.2 83.4;" xml:space="preserve">
<style type="text/css">
	.st0{fill:#FFFFFF;}
</style>
<g>
	<g>
		<path class="st0" d="M251.7,25.4h-16.6v44.3h-10V25.4h-16.6v-9.2h43.2V25.4z"/>
		<path class="st0" d="M50.2,25.9l-6.9,6.6c-4.7-5-10-7.4-15.8-7.4c-5,0-9.1,1.7-12.5,5.1s-5.1,7.6-5.1,12.5c0,3.5,0.8,6.5,2.3,9.2
			s3.6,4.8,6.4,6.3c2.7,1.5,5.8,2.3,9.2,2.3c2.9,0,5.5-0.5,7.9-1.6c2.4-1.1,5-3,7.8-5.8l6.7,7c-3.8,3.7-7.5,6.3-10.9,7.8
			c-3.4,1.4-7.3,2.2-11.7,2.2c-8.1,0-14.7-2.6-19.8-7.7C2.6,57.2,0,50.7,0,42.7c0-5.2,1.2-9.8,3.5-13.8c2.3-4,5.7-7.2,10-9.7
			c4.4-2.4,9.1-3.7,14.1-3.7c4.3,0,8.4,0.9,12.4,2.7C44,20,47.4,22.6,50.2,25.9z"/>
		<path class="st0" d="M55.8,15.5h9.6v53.2h-9.6V15.5z"/>
		<path class="st0" d="M92.2,29.3c3.6,0,7,0.9,10.2,2.7c3.2,1.8,5.7,4.3,7.5,7.4c1.8,3.1,2.7,6.5,2.7,10c0,3.6-0.9,7-2.7,10.2
			c-1.8,3.2-4.2,5.6-7.3,7.4c-3.1,1.8-6.5,2.7-10.3,2.7c-5.5,0-10.2-2-14.1-5.9c-3.9-3.9-5.8-8.7-5.8-14.3c0-6,2.2-11,6.6-15
			C82.7,31.1,87.2,29.3,92.2,29.3z M92.3,38.4c-3,0-5.5,1-7.5,3.1c-2,2.1-3,4.7-3,8c0,3.3,1,6,2.9,8.1c2,2.1,4.5,3.1,7.5,3.1
			c3,0,5.5-1,7.5-3.1c2-2.1,3-4.8,3-8.1c0-3.3-1-6-2.9-8C97.9,39.4,95.4,38.4,92.3,38.4z"/>
		<path class="st0" d="M120.3,30.3h9.7v18.5c0,3.6,0.2,6.1,0.7,7.5c0.5,1.4,1.3,2.5,2.4,3.3c1.1,0.8,2.4,1.2,4,1.2
			c1.6,0,3-0.4,4.1-1.1c1.1-0.8,1.9-1.9,2.5-3.4c0.4-1.1,0.6-3.5,0.6-7.1V30.3h9.6v16.3c0,6.7-0.5,11.3-1.6,13.7
			c-1.3,3-3.2,5.3-5.7,6.9c-2.5,1.6-5.7,2.4-9.6,2.4c-4.2,0-7.6-0.9-10.2-2.8c-2.6-1.9-4.4-4.5-5.5-7.9c-0.8-2.3-1.1-6.6-1.1-12.7
			V30.3z"/>
		<path class="st0" d="M192,15.5h9.6v53.2H192v-4.1c-1.9,1.8-3.8,3.1-5.7,3.9c-1.9,0.8-3.9,1.2-6.1,1.2c-5,0-9.2-1.9-12.9-5.8
			c-3.6-3.8-5.4-8.6-5.4-14.3c0-5.9,1.7-10.8,5.2-14.6c3.5-3.8,7.7-5.7,12.7-5.7c2.3,0,4.5,0.4,6.5,1.3c2,0.9,3.9,2.2,5.6,3.9V15.5z
			 M181.9,38.2c-3,0-5.4,1.1-7.4,3.2c-2,2.1-3,4.8-3,8.1c0,3.3,1,6,3,8.2c2,2.1,4.5,3.2,7.4,3.2c3,0,5.5-1.1,7.5-3.2
			c2-2.1,3-4.9,3-8.3c0-3.3-1-6-3-8.1C187.4,39.3,184.9,38.2,181.9,38.2z"/>
		<path class="st0" d="M265,29.3c3.6,0,7,0.9,10.2,2.7c3.2,1.8,5.7,4.3,7.5,7.4c1.8,3.1,2.7,6.5,2.7,10c0,3.6-0.9,7-2.7,10.2
			c-1.8,3.2-4.2,5.6-7.3,7.4c-3.1,1.8-6.5,2.7-10.3,2.7c-5.5,0-10.2-2-14.1-5.9c-3.9-3.9-5.8-8.7-5.8-14.3c0-6,2.2-11,6.6-15
			C255.6,31.1,260,29.3,265,29.3z M265.2,38.4c-3,0-5.5,1-7.5,3.1c-2,2.1-3,4.7-3,8c0,3.3,1,6,2.9,8.1c2,2.1,4.5,3.1,7.5,3.1
			c3,0,5.5-1,7.5-3.1c2-2.1,3-4.8,3-8.1c0-3.3-1-6-2.9-8C270.8,39.4,268.3,38.4,265.2,38.4z"/>
		<path class="st0" d="M302.8,30.3v4.2c1.7-1.7,3.6-3,5.6-3.9c2-0.9,4.2-1.3,6.5-1.3c5,0,9.3,1.9,12.8,5.7c3.5,3.8,5.3,8.6,5.3,14.6
			c0,5.7-1.8,10.5-5.4,14.3c-3.6,3.8-7.9,5.8-12.9,5.8c-2.2,0-4.3-0.4-6.2-1.2c-1.9-0.8-3.8-2.1-5.7-3.9v18.1h-9.6V30.3H302.8z
			 M312.9,38.2c-3,0-5.5,1-7.5,3.1c-2,2.1-3,4.8-3,8.1c0,3.4,1,6.2,3,8.3c2,2.1,4.5,3.2,7.5,3.2c2.9,0,5.4-1.1,7.4-3.2
			c2-2.1,3-4.9,3-8.2c0-3.3-1-6-3-8.1C318.4,39.3,315.9,38.2,312.9,38.2z"/>
	</g>
	<g>
		<path class="st0" d="M219.5,11.7l9.9-11.3c0,0,0.8-0.8,1.6,0S241.7,12,241.7,12s-2.1,0.6-4,3.2c0,0-2.7-3.7-7.3-3.3
			c-4.6,0.4-6.1,3.1-6.1,3.1S222.7,12.6,219.5,11.7z"/>
	</g>
</g>
</svg>
