<?xml version="1.0" encoding="UTF-8"?>
<svg width="88px" height="98px" viewBox="0 0 88 98" version="1.1" xmlns="http://www.w3.org/2000/svg" xmlns:xlink="http://www.w3.org/1999/xlink">
    <!-- Generator: Sketch 47.1 (45422) - http://www.bohemiancoding.com/sketch -->
    <title>icon/100px/app</title>
    <desc>Created with Sketch.</desc>
    <defs></defs>
    <g id="Page-1" stroke="none" stroke-width="1" fill="none" fill-rule="evenodd">
        <g id="Desktop-HD-Copy-2" transform="translate(-420.000000, -1679.000000)">
            <g id="Group-8" transform="translate(208.000000, 1642.000000)">
                <g id="icon/L/100px/app" transform="translate(206.000000, 31.000000)">
                    <g id="icon-08">
                        <g id="Group">
                            <g transform="translate(14.285714, 14.285714)" id="Shape" fill-rule="nonzero">
                                <path d="M71.2053571,0 C71.2053571,0 71.2053571,0 71.2053571,0 L71.2053571,67.8571429 C71.2053571,69.8214286 69.5982143,71.4285714 67.6339286,71.4285714 L0.223214286,71.4285714 C0.223214286,71.4285714 0.223214286,71.4285714 0.223214286,71.4285714 C0.223214286,73.3928571 1.83035714,75 3.79464286,75 L71.2053571,75 C73.1696429,75 74.7767857,73.3928571 74.7767857,71.4285714 L74.7767857,3.57142857 C74.7767857,1.60714286 73.1696429,0 71.2053571,0 Z" fill="#1180D3"></path>
                                <path d="M67.6339286,71.4285714 C69.5982143,71.4285714 71.2053571,69.8214286 71.2053571,67.8571429 L71.2053571,0 C71.2053571,0 71.2053571,0 71.2053571,0 C71.2053571,0 71.2053571,0 71.2053571,0 L3.79464286,0 C1.83035714,0 0.223214286,1.60714286 0.223214286,3.57142857 L0.223214286,71.4285714 C0.223214286,71.4285714 0.223214286,71.4285714 0.223214286,71.4285714 C0.223214286,71.4285714 0.223214286,71.4285714 0.223214286,71.4285714 L67.6339286,71.4285714 Z" fill="#3ABBED"></path>
                            </g>
                            <g transform="translate(6.250000, 6.250000)" id="Shape" fill-rule="nonzero" fill="#999999">
                                <path d="M51.6964286,1.5625 C57.4553571,1.5625 63.2589286,1.5625 69.0178571,1.5625 C69.8660714,1.5625 69.8660714,0.223214286 69.0178571,0.223214286 C63.2589286,0.223214286 57.4553571,0.223214286 51.6964286,0.223214286 C50.8035714,0.223214286 50.8035714,1.5625 51.6964286,1.5625 L51.6964286,1.5625 Z"></path>
                                <path d="M43.75,1.5625 C45.0892857,1.5625 46.4732143,1.5625 47.8125,1.5625 C48.6607143,1.5625 48.6607143,0.223214286 47.8125,0.223214286 C46.4732143,0.223214286 45.0892857,0.223214286 43.75,0.223214286 C42.9017857,0.223214286 42.9017857,1.5625 43.75,1.5625 L43.75,1.5625 Z"></path>
                                <path d="M1.5625,46.2946429 C1.5625,45.4910714 1.5625,44.6428571 1.5625,43.8392857 C1.5625,42.9910714 0.223214286,42.9910714 0.223214286,43.8392857 C0.223214286,44.6428571 0.223214286,45.4910714 0.223214286,46.2946429 C0.223214286,47.1428571 1.5625,47.1428571 1.5625,46.2946429 L1.5625,46.2946429 Z"></path>
                                <path d="M1.5625,75.5357143 C1.5625,67.0982143 1.5625,58.6160714 1.5625,50.1785714 C1.5625,49.3303571 0.223214286,49.3303571 0.223214286,50.1785714 C0.223214286,58.6160714 0.223214286,67.0982143 0.223214286,75.5357143 C0.223214286,76.3839286 1.5625,76.3839286 1.5625,75.5357143 L1.5625,75.5357143 Z"></path>
                                <path d="M36.6071429,85.9375 C31.6517857,85.9375 26.6964286,85.9375 21.6964286,85.9375 C18.2589286,85.9375 14.7767857,85.9375 11.3392857,85.9375 C10.2678571,85.9375 9.15178571,85.9821429 8.03571429,85.9375 C4.375,85.7589286 1.69642857,83.125 1.5625,79.4642857 C1.51785714,78.6160714 0.178571429,78.6160714 0.223214286,79.4642857 C0.446428571,84.2410714 4.01785714,87.2321429 8.66071429,87.2767857 C12.4553571,87.3214286 16.2946429,87.2767857 20.0892857,87.2767857 C25.5803571,87.2767857 31.1160714,87.2767857 36.6071429,87.2767857 C37.4553571,87.2767857 37.4553571,85.9375 36.6071429,85.9375 L36.6071429,85.9375 Z"></path>
                                <path d="M85.9375,41.9642857 C85.9375,42.5892857 85.9375,43.2142857 85.9375,43.8392857 C85.9375,44.6875 87.2767857,44.6875 87.2767857,43.8392857 C87.2767857,43.2142857 87.2767857,42.5892857 87.2767857,41.9642857 C87.2767857,41.1160714 85.9375,41.1160714 85.9375,41.9642857 L85.9375,41.9642857 Z"></path>
                                <path d="M85.9375,12.7232143 C85.9375,21.3392857 85.9375,29.9553571 85.9375,38.5267857 C85.9375,39.375 87.2767857,39.375 87.2767857,38.5267857 C87.2767857,29.9107143 87.2767857,21.2946429 87.2767857,12.7232143 C87.2767857,11.875 85.9375,11.875 85.9375,12.7232143 L85.9375,12.7232143 Z"></path>
                                <path d="M72.3214286,1.5625 C74.375,1.5625 76.4285714,1.5625 78.5267857,1.5625 C82.5,1.5625 85.7589286,3.79464286 85.9375,8.03571429 C85.9821429,8.88392857 87.3214286,8.88392857 87.2767857,8.03571429 C87.0982143,3.83928571 84.0178571,0.491071429 79.7767857,0.223214286 C77.3214286,0.0892857143 74.7767857,0.223214286 72.3214286,0.223214286 C71.4732143,0.223214286 71.4732143,1.5625 72.3214286,1.5625 L72.3214286,1.5625 Z"></path>
                                <path d="M43.75,85.9375 C42.9910714,85.9375 42.2767857,85.9375 41.5178571,85.9375 C40.6696429,85.9375 40.6696429,87.2767857 41.5178571,87.2767857 C42.2767857,87.2767857 42.9910714,87.2767857 43.75,87.2767857 C44.5982143,87.2767857 44.5982143,85.9375 43.75,85.9375 L43.75,85.9375 Z"></path>
                            </g>
                            <g transform="translate(6.250000, 6.250000)" id="Shape" fill-rule="nonzero" fill="#999999">
                                <path d="M0.401785714,1.38392857 C1.60714286,2.58928571 2.76785714,3.75 3.97321429,4.95535714 C4.59821429,5.58035714 5.53571429,4.59821429 4.91071429,4.01785714 C3.70535714,2.8125 2.54464286,1.65178571 1.33928571,0.446428571 C0.758928571,-0.178571429 -0.178571429,0.758928571 0.401785714,1.38392857 L0.401785714,1.38392857 Z"></path>
                                <path d="M3.97321429,1.38392857 C5.17857143,2.58928571 6.33928571,3.75 7.54464286,4.95535714 C8.16964286,5.58035714 9.10714286,4.59821429 8.48214286,4.01785714 C7.27678571,2.8125 6.11607143,1.65178571 4.91071429,0.446428571 C4.33035714,-0.178571429 3.39285714,0.758928571 3.97321429,1.38392857 L3.97321429,1.38392857 Z"></path>
                                <path d="M0.401785714,4.95535714 C1.60714286,6.16071429 2.76785714,7.32142857 3.97321429,8.52678571 C4.59821429,9.15178571 5.53571429,8.16964286 4.91071429,7.58928571 C3.70535714,6.38392857 2.54464286,5.22321429 1.33928571,4.01785714 C0.758928571,3.39285714 -0.178571429,4.33035714 0.401785714,4.95535714 L0.401785714,4.95535714 Z"></path>
                            </g>
                            <g transform="translate(84.821429, 84.821429)" id="Shape" fill-rule="nonzero" fill="#999999">
                                <path d="M8.52678571,7.54464286 C7.32142857,6.33928571 6.16071429,5.17857143 4.95535714,3.97321429 C4.33035714,3.34821429 3.39285714,4.33035714 4.01785714,4.91071429 C5.22321429,6.11607143 6.38392857,7.27678571 7.58928571,8.48214286 C8.16964286,9.10714286 9.10714286,8.16964286 8.52678571,7.54464286 L8.52678571,7.54464286 Z"></path>
                                <path d="M4.95535714,7.54464286 C3.75,6.33928571 2.58928571,5.17857143 1.38392857,3.97321429 C0.758928571,3.34821429 -0.178571429,4.33035714 0.446428571,4.91071429 C1.65178571,6.11607143 2.8125,7.27678571 4.01785714,8.48214286 C4.59821429,9.10714286 5.53571429,8.16964286 4.95535714,7.54464286 L4.95535714,7.54464286 Z"></path>
                                <path d="M8.52678571,3.97321429 C7.32142857,2.76785714 6.16071429,1.60714286 4.95535714,0.401785714 C4.33035714,-0.223214286 3.39285714,0.758928571 4.01785714,1.33928571 C5.22321429,2.54464286 6.38392857,3.70535714 7.58928571,4.91071429 C8.16964286,5.53571429 9.10714286,4.59821429 8.52678571,3.97321429 L8.52678571,3.97321429 Z"></path>
                            </g>
                            <g transform="translate(28.571429, 28.571429)" id="Shape" fill-rule="nonzero">
                                <path d="M17.7678571,19.6875 L1.78571429,19.6875 C0.803571429,19.6875 0,18.8839286 0,17.9017857 L0,1.91964286 C0,0.9375 0.803571429,0.133928571 1.78571429,0.133928571 L17.7678571,0.133928571 C18.75,0.133928571 19.5535714,0.9375 19.5535714,1.91964286 L19.5535714,17.9017857 C19.5535714,18.8839286 18.75,19.6875 17.7678571,19.6875 Z" fill="#FFFFFF"></path>
                                <path d="M41.0714286,19.6875 L25.2232143,19.6875 C24.2410714,19.6875 23.4375,18.8839286 23.4375,17.9017857 L23.4375,1.91964286 C23.4375,0.9375 24.2410714,0.133928571 25.2232143,0.133928571 L41.0714286,0.133928571 C42.0535714,0.133928571 42.8571429,0.9375 42.8571429,1.91964286 L42.8571429,17.9017857 C42.8571429,18.8839286 42.0535714,19.6875 41.0714286,19.6875 Z" fill="#333333"></path>
                                <path d="M17.7678571,42.7232143 L1.78571429,42.7232143 C0.803571429,42.7232143 0,41.9196429 0,40.9375 L0,25.3125 C0,24.3303571 0.803571429,23.5267857 1.78571429,23.5267857 L17.7678571,23.5267857 C18.75,23.5267857 19.5535714,24.3303571 19.5535714,25.3125 L19.5535714,40.9375 C19.5535714,41.9196429 18.75,42.7232143 17.7678571,42.7232143 Z" fill="#333333"></path>
                                <path d="M41.0714286,42.7232143 L25.2232143,42.7232143 C24.2410714,42.7232143 23.4375,41.9196429 23.4375,40.9375 L23.4375,25.3125 C23.4375,24.3303571 24.2410714,23.5267857 25.2232143,23.5267857 L41.0714286,23.5267857 C42.0535714,23.5267857 42.8571429,24.3303571 42.8571429,25.3125 L42.8571429,40.9375 C42.8571429,41.9196429 42.0535714,42.7232143 41.0714286,42.7232143 Z" fill="#333333"></path>
                            </g>
                            <g transform="translate(18.750000, 74.107143)" id="Shape" fill-rule="nonzero" fill="#FFFFFF">
                                <path d="M8.52678571,7.54464286 C7.32142857,6.33928571 6.16071429,5.17857143 4.95535714,3.97321429 C4.33035714,3.34821429 3.39285714,4.33035714 4.01785714,4.91071429 C5.22321429,6.11607143 6.38392857,7.27678571 7.58928571,8.48214286 C8.16964286,9.10714286 9.10714286,8.16964286 8.52678571,7.54464286 L8.52678571,7.54464286 Z"></path>
                                <path d="M4.95535714,7.54464286 C3.75,6.33928571 2.58928571,5.17857143 1.38392857,3.97321429 C0.758928571,3.34821429 -0.178571429,4.33035714 0.446428571,4.91071429 C1.65178571,6.11607143 2.8125,7.27678571 4.01785714,8.48214286 C4.59821429,9.10714286 5.53571429,8.16964286 4.95535714,7.54464286 L4.95535714,7.54464286 Z"></path>
                                <path d="M8.52678571,3.97321429 C7.32142857,2.76785714 6.16071429,1.60714286 4.95535714,0.401785714 C4.33035714,-0.223214286 3.39285714,0.758928571 4.01785714,1.33928571 C5.22321429,2.54464286 6.38392857,3.70535714 7.58928571,4.91071429 C8.16964286,5.53571429 9.10714286,4.59821429 8.52678571,3.97321429 L8.52678571,3.97321429 Z"></path>
                            </g>
                            <g transform="translate(74.107143, 16.517857)" id="Shape" fill-rule="nonzero" fill="#FFFFFF">
                                <path d="M8.52678571,7.63392857 C7.32142857,6.42857143 6.16071429,5.26785714 4.95535714,4.0625 C4.33035714,3.4375 3.39285714,4.41964286 4.01785714,5 C5.22321429,6.20535714 6.38392857,7.36607143 7.58928571,8.57142857 C8.16964286,9.19642857 9.10714286,8.25892857 8.52678571,7.63392857 L8.52678571,7.63392857 Z"></path>
                                <path d="M4.95535714,7.63392857 C3.75,6.42857143 2.58928571,5.26785714 1.38392857,4.0625 C0.758928571,3.4375 -0.178571429,4.41964286 0.446428571,5 C1.65178571,6.20535714 2.8125,7.36607143 4.01785714,8.57142857 C4.59821429,9.19642857 5.53571429,8.25892857 4.95535714,7.63392857 L4.95535714,7.63392857 Z"></path>
                                <path d="M8.52678571,4.0625 C7.32142857,2.85714286 6.16071429,1.69642857 4.95535714,0.491071429 C4.33035714,-0.133928571 3.39285714,0.848214286 4.01785714,1.42857143 C5.22321429,2.63392857 6.38392857,3.79464286 7.58928571,5 C8.16964286,5.625 9.10714286,4.6875 8.52678571,4.0625 L8.52678571,4.0625 Z"></path>
                            </g>
                            <rect id="Rectangle-path" x="0" y="0" width="100" height="100"></rect>
                        </g>
                        <path d="M85.4910714,9.375 L14.5089286,9.375 C11.7857143,9.375 9.59821429,11.5625 9.59821429,14.2857143 L9.59821429,85.7142857 C9.59821429,88.4375 11.7857143,90.625 14.5089286,90.625 L85.4910714,90.625 C88.2142857,90.625 90.4017857,88.4375 90.4017857,85.7142857 L90.4017857,14.2857143 C90.4017857,11.5625 88.2142857,9.375 85.4910714,9.375 Z M87.7232143,85.7142857 C87.7232143,86.9642857 86.7410714,87.9464286 85.4910714,87.9464286 L14.5089286,87.9464286 C13.2589286,87.9464286 12.2767857,86.9642857 12.2767857,85.7142857 L12.2767857,14.2857143 C12.2767857,13.0357143 13.2589286,12.0535714 14.5089286,12.0535714 L85.4910714,12.0535714 C86.7410714,12.0535714 87.7232143,13.0357143 87.7232143,14.2857143 L87.7232143,85.7142857 Z" id="Shape" fill="#4D4D4D" fill-rule="nonzero"></path>
                    </g>
                </g>
            </g>
        </g>
    </g>
</svg>